<svg width="75" height="75" viewBox="0 0 75 75" fill="none" xmlns="http://www.w3.org/2000/svg">
<path d="M0 62.5V53.8281C0 52.0573 0.442708 50.4167 1.32813 48.9063C2.21354 47.3958 3.4375 46.25 5 45.4688C5.72917 45.1042 6.43229 44.7656 7.10938 44.4531C7.83854 44.1406 8.59375 43.8542 9.375 43.5938V62.5H0ZM12.5 40.625C9.89583 40.625 7.68229 39.7135 5.85938 37.8906C4.03646 36.0677 3.125 33.8542 3.125 31.25C3.125 28.6458 4.03646 26.4323 5.85938 24.6094C7.68229 22.7865 9.89583 21.875 12.5 21.875C15.1042 21.875 17.3177 22.7865 19.1406 24.6094C20.9635 26.4323 21.875 28.6458 21.875 31.25C21.875 33.8542 20.9635 36.0677 19.1406 37.8906C17.3177 39.7135 15.1042 40.625 12.5 40.625ZM12.5 34.375C13.3854 34.375 14.1146 34.0885 14.6875 33.5156C15.3125 32.8906 15.625 32.1354 15.625 31.25C15.625 30.3646 15.3125 29.6354 14.6875 29.0625C14.1146 28.4375 13.3854 28.125 12.5 28.125C11.6146 28.125 10.8594 28.4375 10.2344 29.0625C9.66146 29.6354 9.375 30.3646 9.375 31.25C9.375 32.1354 9.66146 32.8906 10.2344 33.5156C10.8594 34.0885 11.6146 34.375 12.5 34.375ZM12.5 62.5V53.75C12.5 51.9792 12.9427 50.3646 13.8281 48.9063C14.7656 47.3958 15.9896 46.25 17.5 45.4688C20.7292 43.8542 24.0104 42.6563 27.3438 41.875C30.6771 41.0417 34.0625 40.625 37.5 40.625C40.9375 40.625 44.3229 41.0417 47.6562 41.875C50.9896 42.6563 54.2708 43.8542 57.5 45.4688C59.0104 46.25 60.2083 47.3958 61.0938 48.9063C62.0313 50.3646 62.5 51.9792 62.5 53.75V62.5H12.5ZM18.75 56.25H56.25V53.75C56.25 53.1771 56.0938 52.6563 55.7813 52.1875C55.5208 51.7188 55.1563 51.3542 54.6875 51.0937C51.875 49.6875 49.0365 48.6458 46.1719 47.9688C43.3073 47.2396 40.4167 46.875 37.5 46.875C34.5833 46.875 31.6927 47.2396 28.8281 47.9688C25.9635 48.6458 23.125 49.6875 20.3125 51.0937C19.8437 51.3542 19.4531 51.7188 19.1406 52.1875C18.8802 52.6563 18.75 53.1771 18.75 53.75V56.25ZM37.5 37.5C34.0625 37.5 31.1198 36.276 28.6719 33.8281C26.224 31.3802 25 28.4375 25 25C25 21.5625 26.224 18.6198 28.6719 16.1719C31.1198 13.724 34.0625 12.5 37.5 12.5C40.9375 12.5 43.8802 13.724 46.3281 16.1719C48.776 18.6198 50 21.5625 50 25C50 28.4375 48.776 31.3802 46.3281 33.8281C43.8802 36.276 40.9375 37.5 37.5 37.5ZM37.5 31.25C39.2188 31.25 40.6771 30.651 41.875 29.4531C43.125 28.2031 43.75 26.7188 43.75 25C43.75 23.2813 43.125 21.8229 41.875 20.625C40.6771 19.375 39.2188 18.75 37.5 18.75C35.7813 18.75 34.2969 19.375 33.0469 20.625C31.849 21.8229 31.25 23.2813 31.25 25C31.25 26.7188 31.849 28.2031 33.0469 29.4531C34.2969 30.651 35.7813 31.25 37.5 31.25ZM62.5 40.625C59.8958 40.625 57.6823 39.7135 55.8594 37.8906C54.0365 36.0677 53.125 33.8542 53.125 31.25C53.125 28.6458 54.0365 26.4323 55.8594 24.6094C57.6823 22.7865 59.8958 21.875 62.5 21.875C65.1042 21.875 67.3177 22.7865 69.1406 24.6094C70.9635 26.4323 71.875 28.6458 71.875 31.25C71.875 33.8542 70.9635 36.0677 69.1406 37.8906C67.3177 39.7135 65.1042 40.625 62.5 40.625ZM62.5 34.375C63.3854 34.375 64.1146 34.0885 64.6875 33.5156C65.3125 32.8906 65.625 32.1354 65.625 31.25C65.625 30.3646 65.3125 29.6354 64.6875 29.0625C64.1146 28.4375 63.3854 28.125 62.5 28.125C61.6146 28.125 60.8594 28.4375 60.2344 29.0625C59.6615 29.6354 59.375 30.3646 59.375 31.25C59.375 32.1354 59.6615 32.8906 60.2344 33.5156C60.8594 34.0885 61.6146 34.375 62.5 34.375ZM65.625 62.5V43.5938C66.4063 43.8542 67.1354 44.1406 67.8125 44.4531C68.5417 44.7656 69.2708 45.1042 70 45.4688C71.5625 46.25 72.7865 47.3958 73.6719 48.9063C74.5573 50.4167 75 52.0573 75 53.8281V62.5H65.625Z" fill="#00A6FF"/>
</svg>
