<svg width="98" height="98" viewBox="0 0 98 98" fill="none" xmlns="http://www.w3.org/2000/svg">
<path d="M86.7712 64.1083V24.449C86.7712 17.1351 80.8652 11.2292 73.5514 11.2292H24.4493C17.1355 11.2292 11.2295 17.1351 11.2295 24.449V73.551C11.2295 80.8648 17.1355 86.7708 24.4493 86.7708H64.1087L86.7712 64.1083ZM24.4493 79.2167C21.3246 79.2167 18.7837 76.6757 18.7837 73.551V24.449C18.7837 21.3243 21.3246 18.7833 24.4493 18.7833H73.5514C76.676 18.7833 79.217 21.3243 79.217 24.449V60.3312H73.5514C66.2376 60.3312 60.3316 66.2372 60.3316 73.551V79.2167H24.4493ZM40.5534 40.6217C39.5576 37.1194 35.9179 35.0591 32.4155 36.0549C28.9131 37.0507 26.8529 40.6904 27.8487 44.2271C28.1234 45.1886 28.6041 46.047 29.2221 46.7681L40.6907 43.5404C40.8624 42.579 40.8281 41.5832 40.5534 40.6217ZM64.1773 33.9603C63.2159 30.458 59.5418 28.3977 56.0394 29.3935C52.5371 30.3893 50.4768 34.029 51.4726 37.5657C51.7473 38.5272 52.228 39.3856 52.8461 40.1067L64.3147 36.879C64.4864 35.9176 64.452 34.9218 64.1773 33.9603ZM67.5424 45.7723L31.145 56.0391C36.0552 62.5288 44.5708 65.6878 52.8461 63.3529C61.1213 61.018 66.7183 53.8415 67.5424 45.7723Z" fill="#00D6BA"/>
</svg>
