<svg width="42" height="42" viewBox="0 0 42 42" fill="none" xmlns="http://www.w3.org/2000/svg">
<g clip-path="url(#clip0_848_105)">
<path d="M18.5 21C18.5 21.55 18.05 22 17.5 22C16.95 22 16.5 21.55 16.5 21C16.5 20.45 16.95 20 17.5 20C18.05 20 18.5 20.45 18.5 21ZM22.75 19C23.3 19 23.75 18.55 23.75 18C23.75 17.45 23.3 17 22.75 17C22.2 17 21.75 17.45 21.75 18C21.75 18.55 22.2 19 22.75 19ZM19.25 19C19.8 19 20.25 18.55 20.25 18C20.25 17.45 19.8 17 19.25 17C18.7 17 18.25 17.45 18.25 18C18.25 18.55 18.7 19 19.25 19ZM19.25 23C18.7 23 18.25 23.45 18.25 24C18.25 24.55 18.7 25 19.25 25C19.8 25 20.25 24.55 20.25 24C20.25 23.45 19.8 23 19.25 23ZM31 20.25V21.75C31 22.16 30.66 22.5 30.25 22.5C29.84 22.5 29.5 22.16 29.5 21.75H27.96C27.81 23.12 27.27 24.38 26.44 25.4L27.53 26.49L27.54 26.48C27.83 26.19 28.31 26.19 28.6 26.48C28.89 26.77 28.89 27.25 28.6 27.54L27.54 28.6C27.25 28.89 26.77 28.89 26.48 28.6C26.19 28.31 26.19 27.84 26.47 27.55L25.38 26.46C24.36 27.28 23.11 27.82 21.74 27.97V29.51H21.75C22.16 29.51 22.5 29.85 22.5 30.26C22.5 30.67 22.16 31.01 21.75 31.01H20.25C19.84 31.01 19.5 30.67 19.5 30.26C19.5 29.85 19.83 29.52 20.24 29.51V27.96C18.87 27.81 17.62 27.27 16.61 26.45L15.52 27.54L15.53 27.55C15.82 27.84 15.82 28.32 15.53 28.61C15.24 28.9 14.76 28.9 14.47 28.61L13.4 27.54C13.11 27.25 13.11 26.77 13.4 26.48C13.69 26.19 14.16 26.19 14.45 26.47L15.54 25.38C14.72 24.36 14.18 23.12 14.04 21.75H12.5C12.5 22.16 12.16 22.5 11.75 22.5C11.34 22.5 11 22.16 11 21.75V20.25C11 19.84 11.34 19.5 11.75 19.5C12.16 19.5 12.5 19.84 12.5 20.25H14.04C14.19 18.88 14.73 17.64 15.54 16.62L14.45 15.53C14.16 15.81 13.69 15.81 13.4 15.52C13.11 15.23 13.11 14.75 13.4 14.46L14.46 13.4C14.75 13.11 15.23 13.11 15.52 13.4C15.81 13.69 15.81 14.17 15.52 14.46L15.51 14.47L16.6 15.56C17.62 14.74 18.86 14.2 20.23 14.05V12.5C19.82 12.49 19.49 12.16 19.49 11.75C19.5 11.34 19.84 11 20.25 11H21.75C22.16 11 22.5 11.34 22.5 11.75C22.5 12.16 22.16 12.5 21.75 12.5H21.74V14.04C23.11 14.18 24.36 14.73 25.38 15.55L26.47 14.46C26.18 14.17 26.19 13.7 26.48 13.41C26.77 13.12 27.25 13.12 27.54 13.41L28.6 14.47C28.89 14.76 28.89 15.24 28.6 15.53C28.31 15.82 27.83 15.82 27.54 15.53L27.53 15.52L26.44 16.6C27.26 17.62 27.81 18.87 27.96 20.25H29.5C29.5 19.84 29.84 19.5 30.25 19.5C30.66 19.5 31 19.84 31 20.25ZM26 21C26 18.24 23.76 16 21 16C18.24 16 16 18.24 16 21C16 23.76 18.24 26 21 26C23.76 26 26 23.76 26 21ZM21 20C20.45 20 20 20.45 20 21C20 21.55 20.45 22 21 22C21.55 22 22 21.55 22 21C22 20.45 21.55 20 21 20ZM24.5 20C23.95 20 23.5 20.45 23.5 21C23.5 21.55 23.95 22 24.5 22C25.05 22 25.5 21.55 25.5 21C25.5 20.45 25.05 20 24.5 20ZM22.75 23C22.2 23 21.75 23.45 21.75 24C21.75 24.55 22.2 25 22.75 25C23.3 25 23.75 24.55 23.75 24C23.75 23.45 23.3 23 22.75 23Z" fill="#0088FF"/>
</g>
<circle cx="21" cy="21" r="21" fill="#0088FF" fill-opacity="0.25"/>
<defs>
<clipPath id="clip0_848_105">
<rect width="24" height="24" fill="white" transform="translate(9 9)"/>
</clipPath>
</defs>
</svg>
