<svg width="42" height="42" viewBox="0 0 42 42" fill="none" xmlns="http://www.w3.org/2000/svg">
<circle cx="21" cy="21" r="21" fill="#0088FF" fill-opacity="0.25"/>
<g clip-path="url(#clip0_848_106)">
<path d="M21 11C15.48 11 11 15.48 11 21C11 26.52 15.48 31 21 31C26.52 31 31 26.52 31 21C31 15.48 26.52 11 21 11ZM13 21C13 20.39 13.08 19.79 13.21 19.22L17.99 24V25C17.99 26.1 18.89 27 19.99 27V28.93C16.06 28.43 13 25.07 13 21ZM26.89 26.4C26.63 25.59 25.89 25 24.99 25H23.99V22C23.99 21.45 23.54 21 22.99 21H16.99V19H18.99C19.54 19 19.99 18.55 19.99 18V16H21.99C23.09 16 23.99 15.1 23.99 14V13.59C26.92 14.77 29 17.65 29 21C29 23.08 28.19 24.98 26.89 26.4Z" fill="#0088FF"/>
</g>
<defs>
<clipPath id="clip0_848_106">
<rect width="24" height="24" fill="white" transform="translate(9 9)"/>
</clipPath>
</defs>
</svg>
