<svg width="42" height="42" viewBox="0 0 42 42" fill="none" xmlns="http://www.w3.org/2000/svg">
<circle cx="21" cy="21" r="21" fill="#0088FF" fill-opacity="0.25"/>
<g clip-path="url(#clip0_848_107)">
<path d="M17.9999 13V14.38C17.1699 14.05 16.2799 13.88 15.3899 13.88C13.5999 13.88 11.8099 14.56 10.4399 15.93L13.7699 19.26H14.8799V20.37C15.7399 21.23 16.8599 21.68 17.9899 21.73V24H14.9999V27C14.9999 28.1 15.8999 29 16.9999 29H26.9999C28.6599 29 29.9999 27.66 29.9999 26V13H17.9999ZM16.8899 19.41V17.26H14.6099L13.5699 16.22C14.1399 16 14.7599 15.88 15.3899 15.88C16.7299 15.88 17.9799 16.4 18.9299 17.34L20.3399 18.75L20.1399 18.95C19.6299 19.46 18.9499 19.75 18.2199 19.75C17.7499 19.75 17.2899 19.63 16.8899 19.41ZM27.9999 26C27.9999 26.55 27.5499 27 26.9999 27C26.4499 27 25.9999 26.55 25.9999 26V24H19.9999V21.41C20.5699 21.18 21.0999 20.84 21.5599 20.38L21.7599 20.18L24.5899 23H25.9999V21.59L19.9999 15.62V15H27.9999V26Z" fill="#0088FF"/>
</g>
<defs>
<clipPath id="clip0_848_107">
<rect width="24" height="24" fill="white" transform="translate(9 9)"/>
</clipPath>
</defs>
</svg>
