<svg width="42" height="42" viewBox="0 0 42 42" fill="none" xmlns="http://www.w3.org/2000/svg">
<circle cx="21" cy="21" r="21" fill="#0088FF" fill-opacity="0.25"/>
<g clip-path="url(#clip0_848_102)">
<path d="M21.7973 23.8141L19.469 21.5133L19.4965 21.4858C21.0915 19.7075 22.2282 17.6633 22.8973 15.5H25.5832V13.6666H19.1665V11.8333H17.3332V13.6666H10.9165V15.4908H21.1557C20.5415 17.26 19.5698 18.9375 18.2498 20.4041C17.3973 19.46 16.6915 18.4241 16.1323 17.3333H14.299C14.9682 18.8275 15.8848 20.2391 17.0307 21.5133L12.3648 26.115L13.6665 27.4166L18.2498 22.8333L21.1007 25.6841L21.7973 23.8141ZM26.9582 19.1666H25.1248L20.9998 30.1666H22.8332L23.8598 27.4166H28.214L29.2498 30.1666H31.0832L26.9582 19.1666ZM24.5565 25.5833L26.0415 21.6141L27.5265 25.5833H24.5565V25.5833Z" fill="#0088FF"/>
</g>
<defs>
<clipPath id="clip0_848_102">
<rect width="22" height="22" fill="white" transform="translate(10 10)"/>
</clipPath>
</defs>
</svg>
