<svg width="42" height="42" viewBox="0 0 42 42" fill="none" xmlns="http://www.w3.org/2000/svg">
<g clip-path="url(#clip0_848_103)">
<path d="M16 20H10V22H16V20ZM18.17 16.76L16.05 14.64L14.64 16.05L16.76 18.17L18.17 16.76ZM22 10H20V16H22V10ZM27.36 16.05L25.95 14.64L23.83 16.76L25.24 18.17L27.36 16.05ZM26 20V22H32V20H26ZM21 18C19.34 18 18 19.34 18 21C18 22.66 19.34 24 21 24C22.66 24 24 22.66 24 21C24 19.34 22.66 18 21 18ZM23.83 25.24L25.95 27.36L27.36 25.95L25.24 23.83L23.83 25.24V25.24ZM14.64 25.95L16.05 27.36L18.17 25.24L16.76 23.83L14.64 25.95V25.95ZM20 32H22V26H20V32Z" fill="#0088FF"/>
</g>
<circle cx="21" cy="21" r="21" fill="#0088FF" fill-opacity="0.25"/>
<defs>
<clipPath id="clip0_848_103">
<rect width="24" height="24" fill="white" transform="translate(9 9)"/>
</clipPath>
</defs>
</svg>
