<svg width="80" height="80" viewBox="0 0 80 80" fill="none" xmlns="http://www.w3.org/2000/svg">
<path d="M16.6667 70C14.8333 70 13.25 69.3611 11.9167 68.0833C10.6389 66.75 10 65.1667 10 63.3333V16.6667C10 14.8333 10.6389 13.2778 11.9167 12C13.25 10.6667 14.8333 10 16.6667 10H63.3333C65.1667 10 66.7222 10.6667 68 12C69.3333 13.2778 70 14.8333 70 16.6667V63.3333C70 65.1667 69.3333 66.75 68 68.0833C66.7222 69.3611 65.1667 70 63.3333 70H16.6667ZM16.6667 63.3333H63.3333V53.3333H53.3333C51.6667 55.4444 49.6667 57.0833 47.3333 58.25C45.0556 59.4167 42.6111 60 40 60C37.3889 60 34.9167 59.4167 32.5833 58.25C30.3056 57.0833 28.3333 55.4444 26.6667 53.3333H16.6667V63.3333ZM40 53.3333C42.1111 53.3333 44.0278 52.7222 45.75 51.5C47.4722 50.2778 48.6667 48.6667 49.3333 46.6667H63.3333V16.6667H16.6667V46.6667H30.6667C31.3333 48.6667 32.5278 50.2778 34.25 51.5C35.9722 52.7222 37.8889 53.3333 40 53.3333ZM16.6667 63.3333H26.6667C28.3333 63.3333 30.3056 63.3333 32.5833 63.3333C34.9167 63.3333 37.3889 63.3333 40 63.3333C42.6111 63.3333 45.0556 63.3333 47.3333 63.3333C49.6667 63.3333 51.6667 63.3333 53.3333 63.3333H63.3333H16.6667Z" fill="#FF00FB" fill-opacity="0.91"/>
</svg>
