<svg width="80" height="80" viewBox="0 0 80 80" fill="none" xmlns="http://www.w3.org/2000/svg">
<path d="M40 73.3333C35.8333 73.3333 31.9306 72.5417 28.2917 70.9583C24.6528 69.375 21.4861 67.2361 18.7917 64.5417C16.0972 61.8472 13.9583 58.6805 12.375 55.0417C10.7917 51.4028 10 47.5 10 43.3333C10 39.1667 10.7917 35.2639 12.375 31.625C13.9583 27.9861 16.0972 24.8194 18.7917 22.125C21.4861 19.4305 24.6528 17.2917 28.2917 15.7083C31.9306 14.125 35.8333 13.3333 40 13.3333C44.1667 13.3333 48.0694 14.125 51.7083 15.7083C55.3472 17.2917 58.5139 19.4305 61.2083 22.125C63.9028 24.8194 66.0417 27.9861 67.625 31.625C69.2083 35.2639 70 39.1667 70 43.3333C70 47.5 69.2083 51.4028 67.625 55.0417C66.0417 58.6805 63.9028 61.8472 61.2083 64.5417C58.5139 67.2361 55.3472 69.375 51.7083 70.9583C48.0694 72.5417 44.1667 73.3333 40 73.3333ZM49.3333 57.3333L54 52.6667L43.3333 42V26.6667H36.6667V44.6667L49.3333 57.3333ZM18.6667 7.83333L23.3333 12.5L9.16667 26.6667L4.5 22L18.6667 7.83333ZM61.3333 7.83333L75.5 22L70.8333 26.6667L56.6667 12.5L61.3333 7.83333ZM40 66.6667C46.5 66.6667 52.0139 64.4028 56.5417 59.875C61.0694 55.3472 63.3333 49.8333 63.3333 43.3333C63.3333 36.8333 61.0694 31.3194 56.5417 26.7917C52.0139 22.2639 46.5 20 40 20C33.5 20 27.9861 22.2639 23.4583 26.7917C18.9306 31.3194 16.6667 36.8333 16.6667 43.3333C16.6667 49.8333 18.9306 55.3472 23.4583 59.875C27.9861 64.4028 33.5 66.6667 40 66.6667Z" fill="#FF00FB" fill-opacity="0.91"/>
</svg>
